<svg width="250" height="32" viewBox="0 0 250 32" fill="none" xmlns="http://www.w3.org/2000/svg">
<path d="M48.5436 1.7832H56.8293V30.1015C56.8293 30.1813 56.7802 30.2243 56.688 30.2243C56.5959 30.2243 56.5468 30.1813 56.5468 30.1015V11.8205C56.5468 11.3598 56.3748 10.9605 56.037 10.6227C55.6991 10.2848 55.2999 10.1128 54.8393 10.1128C54.4584 10.1128 54.1268 10.2173 53.8442 10.42C53.5617 10.6227 53.3467 10.8745 53.2116 11.1694L45.9393 30.2243H37.6536L30.3384 11.1694C30.2033 10.8745 29.9944 10.6227 29.7058 10.42C29.4232 10.2173 29.0915 10.1128 28.7107 10.1128C28.2501 10.1128 27.8508 10.2848 27.513 10.6227C27.1752 10.9605 27.0032 11.3598 27.0032 11.8205V30.1015C27.0032 30.1813 26.9541 30.2243 26.862 30.2243C26.7698 30.2243 26.7207 30.1813 26.7207 30.1015V1.7832H35.0064L41.7934 19.4192L48.5374 1.7832H48.5436Z" fill="#121317"/>
<path d="M110.196 15.996H115.27V29.2767C113.427 29.9831 111.572 30.2902 109.705 30.2104C107.838 30.1305 106.069 29.7189 104.404 28.9695C102.74 28.2263 101.253 27.182 99.9388 25.8428C98.6244 24.5037 97.6171 22.9127 96.9108 21.0699C96.2044 19.2578 95.8973 17.4211 95.9772 15.566C96.057 13.7108 96.4501 11.9663 97.1565 10.3262C97.8628 8.68603 98.8701 7.21176 100.185 5.8972C101.499 4.58265 103.047 3.56294 104.834 2.83195C106.566 2.12553 108.366 1.77539 110.233 1.77539C112.1 1.77539 113.777 2.11325 115.509 2.78895C115.589 2.84424 115.613 2.91181 115.571 2.99167C115.528 3.07152 115.466 3.08995 115.386 3.03466C113.765 2.38353 112.045 2.05796 110.227 2.05796C109.115 2.05796 108.059 2.18082 107.058 2.42653C106.677 2.50639 106.363 2.70295 106.106 3.01624C105.848 3.32952 105.719 3.6858 105.719 4.09123C105.719 4.36151 105.762 4.5765 105.841 4.74236L110.184 15.9898L110.196 15.996Z" fill="#121317"/>
<path d="M77.2089 1.7832L66.2637 30.2243H72.9279C73.1367 29.6899 73.2718 29.0388 73.2718 28.2648C73.2718 25.1319 71.0361 22.9144 71.0361 22.9144L76.9386 11.366V19.069C76.7605 19.1673 76.6438 19.3516 76.6438 19.5666C76.6438 19.8799 76.8957 20.1317 77.2089 20.1317C77.5222 20.1317 77.774 19.8799 77.774 19.5666C77.774 19.3516 77.6511 19.1673 77.4792 19.069V11.366L83.3817 22.9144C83.3817 22.9144 81.146 25.1319 81.146 28.2648C81.146 29.0388 81.2811 29.6899 81.4899 30.2243H88.1541L77.2089 1.7832Z" fill="#121317"/>
<path d="M16.5775 29.8988H13.4696H13.4573C12.7571 29.8988 12.2105 29.2906 12.2105 28.5965V3.41104C12.2105 2.71077 12.7571 2.10877 13.4573 2.10877H13.4696H16.5775C16.6574 2.10877 16.7004 2.05349 16.7004 1.94906C16.7004 1.84463 16.6574 1.7832 16.5775 1.7832H0.12284C0.0429929 1.7832 0 1.83849 0 1.94906C0 2.05963 0.0429929 2.10877 0.12284 2.10877H3.23074H3.24303C3.94323 2.10877 4.48988 2.71691 4.48988 3.41104V28.5965C4.48988 29.2968 3.94323 29.8988 3.24303 29.8988H3.23074H0.12284C0.0429929 29.8988 0 29.954 0 30.0585C0 30.1629 0.0429929 30.2243 0.12284 30.2243H16.5775C16.6574 30.2243 16.7004 30.169 16.7004 30.0585C16.7004 29.9479 16.6574 29.8988 16.5775 29.8988Z" fill="#121317"/>
<path d="M134.297 16.1987V28.1771C134.297 28.6378 134.462 29.0371 134.806 29.3749C135.144 29.7128 135.556 29.8848 136.047 29.8848H140.389C140.469 29.8848 140.512 29.9401 140.512 30.0445C140.512 30.1489 140.469 30.2042 140.389 30.2042H126.582V1.77539H140.389C140.469 1.77539 140.512 1.83068 140.512 1.9351C140.512 2.03953 140.469 2.09482 140.389 2.09482H136.047C135.562 2.09482 135.144 2.26682 134.806 2.60467C134.468 2.94252 134.297 3.3418 134.297 3.80251V15.867H140.389C140.469 15.867 140.512 15.9222 140.512 16.0267C140.512 16.1311 140.469 16.1864 140.389 16.1864H134.297V16.1987Z" fill="#121317"/>
<path d="M155.502 1.17578H156.89V7.47829H155.502V1.17578Z" fill="#121317"/>
<path d="M157.979 3.15716H159.262V3.74687H159.281C159.324 3.66087 159.379 3.58102 159.459 3.49502C159.539 3.40902 159.631 3.3353 159.735 3.27388C159.84 3.2063 159.962 3.15716 160.098 3.11416C160.233 3.07116 160.38 3.05273 160.54 3.05273C160.878 3.05273 161.154 3.10188 161.357 3.2063C161.566 3.31073 161.725 3.45201 161.842 3.6363C161.959 3.82058 162.038 4.03558 162.075 4.28744C162.118 4.53929 162.137 4.80957 162.137 5.09828V7.48169H160.804V5.36242C160.804 5.23957 160.804 5.11057 160.792 4.97543C160.785 4.84028 160.755 4.71743 160.712 4.60686C160.669 4.49629 160.601 4.40415 160.509 4.33044C160.417 4.25672 160.288 4.226 160.116 4.226C159.944 4.226 159.803 4.25672 159.698 4.31815C159.594 4.37958 159.508 4.46558 159.453 4.57C159.397 4.67443 159.36 4.79114 159.342 4.92014C159.324 5.04914 159.317 5.18428 159.317 5.33171V7.48783H157.985V3.1633L157.979 3.15716Z" fill="#121317"/>
<path d="M165.546 4.42705C165.35 4.18134 165.092 4.06463 164.772 4.06463C164.662 4.06463 164.551 4.0892 164.441 4.14448C164.336 4.19977 164.281 4.29191 164.281 4.42091C164.281 4.52534 164.336 4.60519 164.447 4.65433C164.557 4.70348 164.699 4.74648 164.864 4.78948C165.036 4.82633 165.215 4.86933 165.405 4.91233C165.595 4.95533 165.78 5.02905 165.946 5.12119C166.117 5.21947 166.253 5.34233 166.363 5.50818C166.474 5.67404 166.529 5.88904 166.529 6.16546C166.529 6.44189 166.468 6.67531 166.345 6.85346C166.222 7.0316 166.068 7.17902 165.878 7.28959C165.688 7.40016 165.473 7.47387 165.239 7.52302C165 7.56602 164.766 7.59059 164.539 7.59059C164.238 7.59059 163.931 7.54759 163.624 7.46159C163.317 7.37559 163.053 7.22202 162.844 7.00088L163.654 6.10403C163.777 6.2576 163.919 6.37432 164.066 6.45417C164.22 6.53403 164.392 6.57703 164.594 6.57703C164.748 6.57703 164.889 6.55246 165.012 6.50946C165.135 6.46646 165.196 6.3866 165.196 6.26375C165.196 6.15318 165.141 6.06718 165.03 6.01189C164.92 5.95661 164.779 5.90746 164.613 5.8706C164.441 5.83375 164.263 5.79075 164.072 5.74775C163.882 5.70475 163.697 5.63718 163.532 5.54504C163.366 5.4529 163.225 5.33004 163.114 5.16419C163.003 4.99833 162.948 4.78333 162.948 4.50691C162.948 4.24891 162.997 4.03391 163.102 3.84963C163.206 3.66535 163.341 3.51177 163.513 3.39506C163.685 3.27835 163.876 3.18621 164.097 3.13092C164.318 3.07564 164.539 3.04492 164.766 3.04492C165.049 3.04492 165.337 3.08792 165.632 3.16778C165.927 3.24764 166.167 3.4012 166.369 3.61006L165.552 4.42091L165.546 4.42705Z" fill="#121317"/>
<path d="M170.154 4.21877H168.981V5.66233C168.981 5.77904 168.981 5.88961 169 5.9879C169.018 6.08618 169.037 6.17218 169.079 6.23975C169.122 6.30732 169.184 6.36875 169.27 6.40561C169.356 6.44246 169.473 6.46089 169.614 6.46089C169.688 6.46089 169.78 6.45475 169.896 6.43632C170.013 6.42403 170.099 6.38718 170.161 6.33189V7.44373C170.013 7.49902 169.86 7.52974 169.7 7.54816C169.54 7.56659 169.38 7.57274 169.227 7.57274C169 7.57274 168.797 7.54816 168.607 7.49902C168.416 7.44988 168.25 7.37616 168.109 7.27174C167.968 7.16731 167.857 7.03217 167.777 6.86631C167.698 6.70046 167.655 6.49775 167.655 6.25818V4.20034H166.801V3.1315H167.655V1.84766H168.987V3.1315H170.161V4.20034L170.154 4.21877Z" fill="#121317"/>
<path d="M170.748 1.78571C170.748 1.57071 170.822 1.38643 170.975 1.239C171.129 1.09157 171.307 1.01172 171.522 1.01172C171.737 1.01172 171.915 1.08543 172.069 1.239C172.222 1.39257 172.296 1.57071 172.296 1.78571C172.296 2.0007 172.222 2.17885 172.069 2.33241C171.915 2.48598 171.737 2.5597 171.522 2.5597C171.307 2.5597 171.123 2.48598 170.975 2.33241C170.828 2.17885 170.748 2.0007 170.748 1.78571ZM170.859 3.14941H172.191V7.47393H170.859V3.14941Z" fill="#121317"/>
<path d="M176.096 4.21877H174.923V5.66233C174.923 5.77904 174.923 5.88961 174.941 5.9879C174.959 6.08618 174.978 6.17218 175.021 6.23975C175.064 6.30732 175.125 6.36875 175.211 6.40561C175.297 6.44246 175.414 6.46089 175.555 6.46089C175.629 6.46089 175.721 6.45475 175.838 6.43632C175.955 6.42403 176.04 6.38718 176.102 6.33189V7.44373C175.955 7.49902 175.801 7.52974 175.641 7.54816C175.482 7.56659 175.322 7.57274 175.168 7.57274C174.941 7.57274 174.738 7.54816 174.548 7.49902C174.358 7.44988 174.192 7.37616 174.05 7.27174C173.909 7.16731 173.799 7.03217 173.719 6.86631C173.639 6.70046 173.596 6.49775 173.596 6.25818V4.20034H172.742V3.1315H173.596V1.84766H174.929V3.1315H176.102V4.20034L176.096 4.21877Z" fill="#121317"/>
<path d="M180.928 7.48106H179.644V6.89135H179.626C179.577 6.97735 179.515 7.05721 179.442 7.1432C179.368 7.2292 179.276 7.30292 179.171 7.36435C179.067 7.43192 178.944 7.48106 178.809 7.52406C178.674 7.56706 178.526 7.58549 178.367 7.58549C178.029 7.58549 177.753 7.53634 177.544 7.43192C177.335 7.32749 177.169 7.18621 177.052 7.00192C176.936 6.81764 176.862 6.60264 176.819 6.35079C176.782 6.09893 176.764 5.82865 176.764 5.53994V3.15653H178.097V5.2758C178.097 5.39866 178.097 5.52765 178.109 5.66279C178.121 5.79794 178.146 5.92079 178.189 6.03136C178.232 6.14193 178.299 6.23408 178.391 6.30779C178.483 6.3815 178.612 6.41222 178.784 6.41222C178.956 6.41222 179.098 6.3815 179.202 6.32007C179.307 6.25864 179.392 6.17264 179.448 6.06822C179.503 5.96379 179.54 5.84708 179.558 5.71808C179.577 5.58908 179.583 5.45394 179.583 5.30651V3.15039H180.916V7.47492L180.928 7.48106Z" fill="#121317"/>
<path d="M184.828 4.21877H183.655V5.66233C183.655 5.77904 183.655 5.88961 183.673 5.9879C183.692 6.08618 183.71 6.17218 183.753 6.23975C183.796 6.30732 183.858 6.36875 183.944 6.40561C184.03 6.44246 184.146 6.46089 184.288 6.46089C184.361 6.46089 184.454 6.45475 184.57 6.43632C184.687 6.42403 184.773 6.38718 184.834 6.33189V7.44373C184.687 7.49902 184.533 7.52974 184.374 7.54816C184.214 7.56659 184.054 7.57274 183.901 7.57274C183.673 7.57274 183.471 7.54816 183.28 7.49902C183.09 7.44988 182.924 7.37616 182.783 7.27174C182.642 7.16731 182.531 7.03217 182.451 6.86631C182.371 6.70046 182.328 6.49775 182.328 6.25818V4.20034H181.475V3.1315H182.328V1.84766H183.661V3.1315H184.834V4.20034L184.828 4.21877Z" fill="#121317"/>
<path d="M189.591 6.72892C189.376 6.99921 189.106 7.2142 188.78 7.36163C188.455 7.50906 188.117 7.58277 187.767 7.58277C187.417 7.58277 187.122 7.52749 186.827 7.42306C186.532 7.31863 186.28 7.16506 186.059 6.96235C185.844 6.76578 185.672 6.52621 185.549 6.24364C185.427 5.96722 185.365 5.65394 185.365 5.30994C185.365 4.96594 185.427 4.65266 185.549 4.37623C185.672 4.09981 185.844 3.86024 186.059 3.65753C186.274 3.46096 186.532 3.30739 186.827 3.19682C187.122 3.09239 187.435 3.03711 187.767 3.03711C188.074 3.03711 188.356 3.09239 188.608 3.19682C188.86 3.30125 189.075 3.45482 189.247 3.65753C189.419 3.8541 189.554 4.09366 189.652 4.37623C189.745 4.65266 189.794 4.96594 189.794 5.30994V5.72765H186.698C186.753 5.98565 186.87 6.18836 187.048 6.33578C187.226 6.48935 187.447 6.56307 187.705 6.56307C187.926 6.56307 188.111 6.51393 188.264 6.41564C188.418 6.31736 188.547 6.1945 188.657 6.03479L189.591 6.72278V6.72892ZM188.461 4.82466C188.461 4.59738 188.393 4.40695 188.24 4.24724C188.086 4.08752 187.883 4.00767 187.644 4.00767C187.497 4.00767 187.368 4.03224 187.251 4.08138C187.134 4.13052 187.042 4.19195 186.962 4.26567C186.882 4.33938 186.821 4.42538 186.778 4.52366C186.735 4.62195 186.71 4.72638 186.704 4.8308H188.467L188.461 4.82466Z" fill="#121317"/>
<path d="M193.08 5.31776C193.08 4.97376 193.141 4.66048 193.264 4.38405C193.387 4.10762 193.559 3.86806 193.774 3.66535C193.989 3.46263 194.247 3.31521 194.542 3.20464C194.837 3.10021 195.15 3.04492 195.482 3.04492C195.813 3.04492 196.127 3.10021 196.421 3.20464C196.716 3.30906 196.968 3.46263 197.189 3.66535C197.41 3.86806 197.576 4.10148 197.699 4.38405C197.822 4.66048 197.883 4.97376 197.883 5.31776C197.883 5.66175 197.822 5.97503 197.699 6.25146C197.576 6.52789 197.404 6.76745 197.189 6.97016C196.974 7.17288 196.716 7.3203 196.421 7.43087C196.127 7.5353 195.813 7.59059 195.482 7.59059C195.15 7.59059 194.837 7.5353 194.542 7.43087C194.247 7.32645 193.995 7.17288 193.774 6.97016C193.553 6.76745 193.387 6.53403 193.264 6.25146C193.141 5.97503 193.08 5.66175 193.08 5.31776ZM194.419 5.31776C194.419 5.64333 194.511 5.90747 194.702 6.11018C194.886 6.31289 195.15 6.41117 195.488 6.41117C195.826 6.41117 196.09 6.31289 196.274 6.11018C196.458 5.90747 196.557 5.64333 196.557 5.31776C196.557 4.99219 196.464 4.72805 196.274 4.52534C196.09 4.32262 195.826 4.22434 195.488 4.22434C195.15 4.22434 194.886 4.32262 194.702 4.52534C194.517 4.72805 194.419 4.99219 194.419 5.31776Z" fill="#121317"/>
<path d="M199.136 4.22187H198.258V3.15302H199.136V2.38518C199.136 2.14561 199.155 1.92447 199.198 1.71561C199.241 1.50676 199.32 1.32247 199.437 1.15662C199.554 0.996905 199.726 0.867909 199.947 0.775767C200.168 0.683625 200.463 0.640625 200.825 0.640625C200.96 0.640625 201.095 0.640624 201.224 0.659053C201.353 0.671338 201.482 0.689766 201.605 0.72048L201.544 1.85076C201.464 1.82004 201.396 1.80161 201.329 1.78318C201.261 1.7709 201.188 1.75861 201.108 1.75861C200.893 1.75861 200.733 1.80776 200.629 1.89375C200.524 1.9859 200.469 2.17632 200.469 2.45889V3.14688H201.458V4.21573H200.469V7.47141H199.136V4.21573V4.22187Z" fill="#121317"/>
<path d="M155.523 12.0996H157.624L159.074 16.2091H159.092L160.554 12.0996H162.648V18.4021H161.26V13.5677H161.242L159.583 18.4021H158.527L156.936 13.5677H156.918V18.4021H155.53V12.0996H155.523Z" fill="#121317"/>
<path d="M167.92 18.3971H166.637V17.8074H166.618C166.569 17.8934 166.508 17.9732 166.434 18.0592C166.36 18.1452 166.268 18.2189 166.164 18.2804C166.059 18.3479 165.936 18.3971 165.801 18.4401C165.666 18.4831 165.519 18.5015 165.359 18.5015C165.021 18.5015 164.745 18.4524 164.536 18.3479C164.327 18.2435 164.161 18.1022 164.045 17.9179C163.928 17.7337 163.854 17.5187 163.811 17.2668C163.774 17.0149 163.756 16.7447 163.756 16.456V14.0725H165.089V16.1918C165.089 16.3147 165.089 16.4437 165.101 16.5788C165.113 16.7139 165.138 16.8368 165.181 16.9474C165.224 17.0579 165.291 17.1501 165.384 17.2238C165.476 17.2975 165.605 17.3282 165.777 17.3282C165.949 17.3282 166.09 17.2975 166.194 17.2361C166.299 17.1747 166.385 17.0887 166.44 16.9842C166.495 16.8798 166.532 16.7631 166.551 16.6341C166.569 16.5051 166.575 16.3699 166.575 16.2225V14.0664H167.908V18.3909L167.92 18.3971Z" fill="#121317"/>
<path d="M168.877 11.6719H170.21V18.3982H168.877V11.6719Z" fill="#121317"/>
<path d="M174.119 15.1485H172.946V16.592C172.946 16.7087 172.946 16.8193 172.964 16.9176C172.983 17.0159 173.001 17.1019 173.044 17.1694C173.087 17.237 173.149 17.2984 173.235 17.3353C173.321 17.3721 173.437 17.3906 173.579 17.3906C173.652 17.3906 173.745 17.3844 173.861 17.366C173.978 17.3537 174.064 17.3169 174.125 17.2616V18.3734C173.978 18.4287 173.824 18.4594 173.665 18.4779C173.505 18.4963 173.345 18.5024 173.192 18.5024C172.964 18.5024 172.762 18.4779 172.571 18.4287C172.381 18.3796 172.215 18.3059 172.074 18.2014C171.933 18.097 171.822 17.9619 171.742 17.796C171.662 17.6301 171.619 17.4274 171.619 17.1879V15.13H170.766V14.0612H171.619V12.7773H172.952V14.0612H174.125V15.13L174.119 15.1485Z" fill="#121317"/>
<path d="M174.709 12.7134C174.709 12.4984 174.783 12.3142 174.936 12.1667C175.09 12.0193 175.268 11.9395 175.483 11.9395C175.698 11.9395 175.876 12.0132 176.03 12.1667C176.183 12.3203 176.257 12.4984 176.257 12.7134C176.257 12.9284 176.183 13.1066 176.03 13.2602C175.876 13.4137 175.698 13.4874 175.483 13.4874C175.268 13.4874 175.084 13.4137 174.936 13.2602C174.789 13.1066 174.709 12.9284 174.709 12.7134ZM174.82 14.0771H176.152V18.4017H174.82V14.0771Z" fill="#121317"/>
<path d="M177.104 14.0732H178.387V14.6629H178.406C178.449 14.5769 178.504 14.497 178.584 14.411C178.664 14.325 178.756 14.2513 178.86 14.1899C178.965 14.1223 179.087 14.0732 179.223 14.0302C179.358 13.9872 179.505 13.9688 179.665 13.9688C179.966 13.9688 180.236 14.0302 180.469 14.153C180.703 14.2759 180.881 14.4725 180.998 14.7427C181.151 14.4663 181.342 14.2636 181.557 14.1469C181.778 14.0302 182.048 13.9688 182.367 13.9688C182.656 13.9688 182.902 14.0179 183.104 14.1162C183.307 14.2145 183.461 14.3496 183.577 14.5155C183.694 14.6813 183.774 14.884 183.829 15.1113C183.878 15.3386 183.903 15.5843 183.903 15.8484V18.4038H182.57V15.8853C182.57 15.6826 182.527 15.5106 182.441 15.3632C182.355 15.2157 182.201 15.142 181.98 15.142C181.827 15.142 181.698 15.1666 181.593 15.2157C181.489 15.2649 181.409 15.3386 181.342 15.4246C181.28 15.5106 181.237 15.615 181.206 15.7379C181.182 15.8546 181.163 15.9836 181.163 16.1126V18.3977H179.831V16.1126C179.831 16.0327 179.831 15.9406 179.824 15.83C179.818 15.7194 179.8 15.6089 179.763 15.5106C179.726 15.4123 179.671 15.3263 179.591 15.2526C179.511 15.1789 179.395 15.1482 179.241 15.1482C179.069 15.1482 178.928 15.1789 178.823 15.2403C178.719 15.3017 178.633 15.3877 178.578 15.4922C178.522 15.5966 178.485 15.7133 178.467 15.8423C178.449 15.9713 178.443 16.1064 178.443 16.2539V18.41H177.11V14.0855L177.104 14.0732Z" fill="#121317"/>
<path d="M188.946 17.6528C188.731 17.923 188.461 18.138 188.136 18.2855C187.81 18.4329 187.472 18.5066 187.122 18.5066C186.772 18.5066 186.477 18.4513 186.183 18.3469C185.888 18.2425 185.636 18.0889 185.415 17.8862C185.2 17.6896 185.028 17.45 184.905 17.1675C184.782 16.891 184.721 16.5778 184.721 16.2338C184.721 15.8898 184.782 15.5765 184.905 15.3001C185.028 15.0236 185.2 14.7841 185.415 14.5814C185.63 14.3848 185.888 14.2312 186.183 14.1207C186.477 14.0162 186.791 13.9609 187.122 13.9609C187.429 13.9609 187.712 14.0162 187.964 14.1207C188.216 14.2251 188.431 14.3786 188.602 14.5814C188.774 14.7779 188.91 15.0175 189.008 15.3001C189.1 15.5765 189.149 15.8898 189.149 16.2338V16.6515H186.054C186.109 16.9095 186.226 17.1122 186.404 17.2596C186.582 17.4132 186.803 17.4869 187.061 17.4869C187.282 17.4869 187.466 17.4378 187.62 17.3395C187.773 17.2412 187.902 17.1183 188.013 16.9586L188.946 17.6466V17.6528ZM187.816 15.7485C187.816 15.5212 187.749 15.3308 187.595 15.1711C187.442 15.0114 187.239 14.9315 186.999 14.9315C186.852 14.9315 186.723 14.9561 186.606 15.0052C186.49 15.0544 186.397 15.1158 186.318 15.1895C186.238 15.2632 186.176 15.3492 186.133 15.4475C186.09 15.5458 186.066 15.6502 186.06 15.7546H187.822L187.816 15.7485Z" fill="#121317"/>
<path d="M194.499 18.3982H193.271V17.8269H193.252C193.197 17.9068 193.13 17.9805 193.044 18.0604C192.958 18.1402 192.859 18.2139 192.743 18.2815C192.626 18.3491 192.497 18.3982 192.362 18.4412C192.227 18.4842 192.079 18.5027 191.932 18.5027C191.612 18.5027 191.318 18.4474 191.06 18.3368C190.802 18.2262 190.574 18.0727 190.39 17.8761C190.206 17.6795 190.058 17.44 189.96 17.1697C189.862 16.8994 189.807 16.5984 189.807 16.2728C189.807 15.9718 189.856 15.6831 189.948 15.4067C190.04 15.1303 190.169 14.8846 190.341 14.6696C190.513 14.4546 190.716 14.2826 190.961 14.1597C191.207 14.0307 191.483 13.9693 191.791 13.9693C192.067 13.9693 192.331 14.0123 192.571 14.0983C192.81 14.1843 193.007 14.3317 193.16 14.5406H193.179V11.6719H194.511V18.3982H194.499ZM193.271 16.236C193.271 15.9104 193.179 15.6463 192.988 15.4435C192.804 15.2408 192.54 15.1426 192.202 15.1426C191.864 15.1426 191.6 15.2408 191.416 15.4435C191.232 15.6463 191.133 15.9104 191.133 16.236C191.133 16.5615 191.225 16.8257 191.416 17.0284C191.6 17.2311 191.864 17.3294 192.202 17.3294C192.54 17.3294 192.804 17.2311 192.988 17.0284C193.173 16.8257 193.271 16.5615 193.271 16.236Z" fill="#121317"/>
<path d="M195.477 12.7134C195.477 12.4984 195.55 12.3142 195.704 12.1667C195.857 12.0193 196.035 11.9395 196.25 11.9395C196.465 11.9395 196.644 12.0132 196.797 12.1667C196.951 12.3203 197.024 12.4984 197.024 12.7134C197.024 12.9284 196.951 13.1066 196.797 13.2602C196.644 13.4137 196.465 13.4874 196.25 13.4874C196.035 13.4874 195.851 13.4137 195.704 13.2602C195.556 13.1066 195.477 12.9284 195.477 12.7134ZM195.587 14.0771H196.92V18.4017H195.587V14.0771Z" fill="#121317"/>
<path d="M200.594 17.8571H200.575C200.428 18.0906 200.231 18.2564 199.985 18.3547C199.74 18.453 199.482 18.5083 199.205 18.5083C199.003 18.5083 198.806 18.4776 198.622 18.4223C198.438 18.367 198.272 18.281 198.131 18.1704C197.989 18.0599 197.873 17.9186 197.793 17.7527C197.707 17.5869 197.67 17.3964 197.67 17.1753C197.67 16.9234 197.713 16.7146 197.805 16.5426C197.897 16.3706 198.02 16.2293 198.18 16.1126C198.339 16.002 198.518 15.9099 198.72 15.8484C198.923 15.787 199.132 15.7379 199.347 15.7133C199.562 15.6826 199.777 15.6642 199.998 15.658C200.219 15.6519 200.415 15.6519 200.6 15.6519C200.6 15.4123 200.514 15.228 200.348 15.0867C200.182 14.9455 199.979 14.8779 199.746 14.8779C199.525 14.8779 199.328 14.927 199.144 15.013C198.96 15.1052 198.8 15.2342 198.659 15.3939L197.946 14.6629C198.198 14.4295 198.487 14.2575 198.818 14.1407C199.15 14.024 199.494 13.9688 199.85 13.9688C200.243 13.9688 200.563 14.0179 200.815 14.1162C201.067 14.2145 201.269 14.3557 201.423 14.5462C201.576 14.7366 201.681 14.97 201.736 15.2465C201.797 15.5229 201.822 15.8423 201.822 16.2047V18.4038H200.594V17.8633V17.8571ZM200.268 16.5057C200.17 16.5057 200.041 16.5057 199.887 16.518C199.734 16.5242 199.592 16.5549 199.451 16.5917C199.31 16.6286 199.193 16.6961 199.095 16.776C198.997 16.862 198.947 16.9726 198.947 17.1261C198.947 17.2859 199.015 17.4026 199.15 17.4824C199.285 17.5623 199.427 17.5991 199.58 17.5991C199.709 17.5991 199.838 17.5807 199.961 17.5439C200.084 17.507 200.188 17.4579 200.286 17.3903C200.379 17.3227 200.458 17.2429 200.514 17.1384C200.569 17.034 200.6 16.9173 200.6 16.7821V16.4996H200.268V16.5057Z" fill="#121317"/>
<path d="M203.001 16.9648H204.285L203.486 19.4772H202.344L203.001 16.9648Z" fill="#121317"/>
<path d="M210.18 12.0996H211.329L214.068 18.4021H212.502L211.961 17.0691H209.51L208.988 18.4021H207.459L210.18 12.0996ZM210.708 13.9363L209.94 15.8958H211.482L210.708 13.9363Z" fill="#121317"/>
<path d="M214.525 14.0732H215.809V14.6629H215.828C215.871 14.5769 215.926 14.497 216.006 14.411C216.085 14.325 216.178 14.2513 216.282 14.1899C216.386 14.1223 216.509 14.0732 216.644 14.0302C216.78 13.9872 216.927 13.9688 217.087 13.9688C217.424 13.9688 217.701 14.0179 217.904 14.1223C218.112 14.2267 218.272 14.368 218.389 14.5523C218.505 14.7366 218.585 14.9516 218.622 15.2035C218.665 15.4553 218.684 15.7256 218.684 16.0143V18.3977H217.351V16.2784C217.351 16.1556 217.351 16.0266 217.338 15.8914C217.332 15.7563 217.302 15.6334 217.259 15.5229C217.216 15.4123 217.148 15.3202 217.056 15.2465C216.964 15.1727 216.835 15.142 216.663 15.142C216.491 15.142 216.35 15.1727 216.245 15.2342C216.141 15.2956 216.055 15.3816 215.999 15.486C215.944 15.5904 215.907 15.7072 215.889 15.8362C215.871 15.9652 215.864 16.1003 215.864 16.2477V18.4038H214.532V14.0793L214.525 14.0732Z" fill="#121317"/>
<path d="M219.537 12.7134C219.537 12.4984 219.611 12.3142 219.764 12.1667C219.918 12.0193 220.096 11.9395 220.311 11.9395C220.526 11.9395 220.704 12.0132 220.858 12.1667C221.011 12.3203 221.085 12.4984 221.085 12.7134C221.085 12.9284 221.011 13.1066 220.858 13.2602C220.704 13.4137 220.526 13.4874 220.311 13.4874C220.096 13.4874 219.912 13.4137 219.764 13.2602C219.617 13.1066 219.537 12.9284 219.537 12.7134ZM219.648 14.0771H220.981V18.4017H219.648V14.0771Z" fill="#121317"/>
<path d="M221.951 14.0732H223.235V14.6629H223.253C223.296 14.5769 223.352 14.497 223.431 14.411C223.511 14.325 223.603 14.2513 223.708 14.1899C223.812 14.1223 223.935 14.0732 224.07 14.0302C224.205 13.9872 224.353 13.9688 224.512 13.9688C224.813 13.9688 225.084 14.0302 225.317 14.153C225.55 14.2759 225.729 14.4725 225.845 14.7427C225.999 14.4663 226.189 14.2636 226.404 14.1469C226.625 14.0302 226.896 13.9688 227.215 13.9688C227.504 13.9688 227.749 14.0179 227.952 14.1162C228.155 14.2145 228.308 14.3496 228.425 14.5155C228.542 14.6813 228.622 14.884 228.677 15.1113C228.726 15.3386 228.75 15.5843 228.75 15.8484V18.4038H227.418V15.8853C227.418 15.6826 227.375 15.5106 227.289 15.3632C227.203 15.2157 227.049 15.142 226.828 15.142C226.674 15.142 226.545 15.1666 226.441 15.2157C226.337 15.2649 226.257 15.3386 226.189 15.4246C226.128 15.5106 226.085 15.615 226.054 15.7379C226.03 15.8546 226.011 15.9836 226.011 16.1126V18.3977H224.678V16.1126C224.678 16.0327 224.678 15.9406 224.672 15.83C224.666 15.7194 224.648 15.6089 224.611 15.5106C224.574 15.4123 224.519 15.3263 224.439 15.2526C224.359 15.1789 224.242 15.1482 224.089 15.1482C223.917 15.1482 223.775 15.1789 223.671 15.2403C223.567 15.3017 223.481 15.3877 223.425 15.4922C223.37 15.5966 223.333 15.7133 223.315 15.8423C223.296 15.9713 223.29 16.1064 223.29 16.2539V18.41H221.957V14.0855L221.951 14.0732Z" fill="#121317"/>
<path d="M232.408 17.8571H232.39C232.242 18.0906 232.046 18.2564 231.8 18.3547C231.554 18.453 231.296 18.5083 231.02 18.5083C230.817 18.5083 230.621 18.4776 230.436 18.4223C230.252 18.367 230.086 18.281 229.945 18.1704C229.804 18.0599 229.687 17.9186 229.607 17.7527C229.521 17.5869 229.484 17.3964 229.484 17.1753C229.484 16.9234 229.527 16.7146 229.62 16.5426C229.712 16.3706 229.834 16.2293 229.994 16.1126C230.154 16.002 230.332 15.9099 230.535 15.8484C230.737 15.787 230.946 15.7379 231.161 15.7133C231.376 15.6826 231.591 15.6642 231.812 15.658C232.033 15.6519 232.23 15.6519 232.414 15.6519C232.414 15.4123 232.328 15.228 232.162 15.0867C231.996 14.9455 231.794 14.8779 231.56 14.8779C231.339 14.8779 231.143 14.927 230.958 15.013C230.774 15.1052 230.615 15.2342 230.473 15.3939L229.761 14.6629C230.013 14.4295 230.301 14.2575 230.633 14.1407C230.965 14.024 231.309 13.9688 231.665 13.9688C232.058 13.9688 232.377 14.0179 232.629 14.1162C232.881 14.2145 233.084 14.3557 233.237 14.5462C233.391 14.7366 233.495 14.97 233.55 15.2465C233.612 15.5229 233.636 15.8423 233.636 16.2047V18.4038H232.408V17.8633V17.8571ZM232.082 16.5057C231.984 16.5057 231.855 16.5057 231.702 16.518C231.548 16.5242 231.407 16.5549 231.266 16.5917C231.124 16.6286 231.008 16.6961 230.909 16.776C230.811 16.862 230.762 16.9726 230.762 17.1261C230.762 17.2859 230.829 17.4026 230.965 17.4824C231.1 17.5623 231.241 17.5991 231.395 17.5991C231.524 17.5991 231.653 17.5807 231.775 17.5439C231.898 17.507 232.003 17.4579 232.101 17.3903C232.193 17.3227 232.273 17.2429 232.328 17.1384C232.383 17.034 232.414 16.9173 232.414 16.7821V16.4996H232.082V16.5057Z" fill="#121317"/>
<path d="M237.42 15.1485H236.247V16.592C236.247 16.7087 236.247 16.8193 236.265 16.9176C236.284 17.0159 236.302 17.1019 236.345 17.1694C236.388 17.237 236.45 17.2984 236.536 17.3353C236.622 17.3721 236.738 17.3906 236.879 17.3906C236.953 17.3906 237.045 17.3844 237.162 17.366C237.279 17.3537 237.365 17.3169 237.426 17.2616V18.3734C237.279 18.4287 237.125 18.4594 236.965 18.4779C236.806 18.4963 236.646 18.5024 236.493 18.5024C236.265 18.5024 236.063 18.4779 235.872 18.4287C235.682 18.3796 235.516 18.3059 235.375 18.2014C235.233 18.097 235.123 17.9619 235.043 17.796C234.963 17.6301 234.92 17.4274 234.92 17.1879V15.13H234.066V14.0612H234.92V12.7773H236.253V14.0612H237.426V15.13L237.42 15.1485Z" fill="#121317"/>
<path d="M238.006 12.7134C238.006 12.4984 238.08 12.3142 238.233 12.1667C238.387 12.0193 238.565 11.9395 238.78 11.9395C238.995 11.9395 239.173 12.0132 239.326 12.1667C239.48 12.3203 239.554 12.4984 239.554 12.7134C239.554 12.9284 239.48 13.1066 239.326 13.2602C239.173 13.4137 238.995 13.4874 238.78 13.4874C238.565 13.4874 238.381 13.4137 238.233 13.2602C238.086 13.1066 238.006 12.9284 238.006 12.7134ZM238.11 14.0771H239.443V18.4017H238.11V14.0771Z" fill="#121317"/>
<path d="M240.244 16.2338C240.244 15.8898 240.306 15.5765 240.428 15.3001C240.551 15.0236 240.723 14.7841 240.938 14.5814C241.153 14.3786 241.411 14.2312 241.706 14.1207C242.001 14.0162 242.314 13.9609 242.646 13.9609C242.977 13.9609 243.291 14.0162 243.585 14.1207C243.88 14.2251 244.132 14.3786 244.353 14.5814C244.574 14.7841 244.74 15.0175 244.863 15.3001C244.986 15.5765 245.047 15.8898 245.047 16.2338C245.047 16.5778 244.986 16.891 244.863 17.1675C244.74 17.4439 244.568 17.6835 244.353 17.8862C244.138 18.0889 243.88 18.2363 243.585 18.3469C243.291 18.4513 242.977 18.5066 242.646 18.5066C242.314 18.5066 242.001 18.4513 241.706 18.3469C241.411 18.2425 241.159 18.0889 240.938 17.8862C240.717 17.6835 240.551 17.45 240.428 17.1675C240.306 16.891 240.244 16.5778 240.244 16.2338ZM241.577 16.2338C241.577 16.5593 241.669 16.8235 241.86 17.0262C242.044 17.2289 242.308 17.3272 242.646 17.3272C242.984 17.3272 243.248 17.2289 243.432 17.0262C243.616 16.8235 243.714 16.5593 243.714 16.2338C243.714 15.9082 243.622 15.6441 243.432 15.4414C243.248 15.2386 242.984 15.1404 242.646 15.1404C242.308 15.1404 242.044 15.2386 241.86 15.4414C241.675 15.6441 241.577 15.9082 241.577 16.2338Z" fill="#121317"/>
<path d="M245.842 14.0732H247.125V14.6629H247.144C247.187 14.5769 247.242 14.497 247.322 14.411C247.402 14.325 247.494 14.2513 247.598 14.1899C247.703 14.1223 247.826 14.0732 247.961 14.0302C248.096 13.9872 248.243 13.9688 248.403 13.9688C248.741 13.9688 249.017 14.0179 249.22 14.1223C249.429 14.2267 249.588 14.368 249.705 14.5523C249.822 14.7366 249.902 14.9516 249.939 15.2035C249.982 15.4553 250 15.7256 250 16.0143V18.3977H248.667V16.2784C248.667 16.1556 248.667 16.0266 248.655 15.8914C248.649 15.7563 248.618 15.6334 248.575 15.5229C248.532 15.4123 248.464 15.3202 248.372 15.2465C248.28 15.1727 248.151 15.142 247.979 15.142C247.807 15.142 247.666 15.1727 247.562 15.2342C247.457 15.2956 247.371 15.3816 247.316 15.486C247.261 15.5904 247.224 15.7072 247.205 15.8362C247.187 15.9652 247.181 16.1003 247.181 16.2477V18.4038H245.848V14.0793L245.842 14.0732Z" fill="#121317"/>
<path d="M160.174 27.8423L161.58 29.3288H159.86L159.338 28.733C159.074 28.9971 158.798 29.1937 158.497 29.3104C158.196 29.4271 157.858 29.4886 157.49 29.4886C157.207 29.4886 156.931 29.4517 156.66 29.3718C156.396 29.292 156.157 29.1753 155.942 29.0217C155.733 28.862 155.561 28.6654 155.438 28.432C155.315 28.1924 155.254 27.916 155.254 27.6027C155.254 27.4 155.291 27.2096 155.358 27.0314C155.426 26.8533 155.524 26.6874 155.641 26.54C155.764 26.3926 155.905 26.2636 156.065 26.153C156.224 26.0424 156.402 25.9564 156.587 25.8889C156.488 25.7783 156.39 25.6677 156.304 25.5694C156.218 25.4712 156.145 25.3606 156.083 25.25C156.022 25.1395 155.973 25.0166 155.942 24.8937C155.911 24.7709 155.893 24.6296 155.893 24.476C155.893 24.1935 155.948 23.9478 156.059 23.745C156.169 23.5423 156.316 23.3765 156.501 23.2475C156.685 23.1185 156.894 23.0202 157.133 22.9649C157.373 22.9035 157.612 22.8789 157.864 22.8789C158.116 22.8789 158.337 22.9096 158.558 22.971C158.779 23.0325 158.97 23.1308 159.142 23.2536C159.314 23.3826 159.443 23.5423 159.547 23.7328C159.646 23.9232 159.701 24.1566 159.701 24.4207C159.701 24.6112 159.67 24.7832 159.609 24.9429C159.547 25.1026 159.461 25.25 159.357 25.3913C159.252 25.5326 159.13 25.6555 158.988 25.766C158.847 25.8766 158.7 25.9749 158.54 26.0547L159.351 26.9209L159.965 26.0854H161.513L160.186 27.8484L160.174 27.8423ZM157.416 26.6383C157.33 26.6936 157.238 26.7489 157.152 26.8041C157.066 26.8594 156.986 26.9209 156.918 26.9884C156.851 27.056 156.796 27.1359 156.753 27.2219C156.71 27.3079 156.691 27.4123 156.691 27.5351C156.691 27.658 156.716 27.7624 156.765 27.8546C156.814 27.9529 156.875 28.0266 156.949 28.0941C157.029 28.1617 157.115 28.2108 157.219 28.2477C157.324 28.2846 157.428 28.303 157.533 28.303C157.741 28.303 157.92 28.26 158.073 28.1678C158.227 28.0757 158.374 27.9713 158.522 27.8361L157.41 26.626L157.416 26.6383ZM157.84 23.9355C157.668 23.9355 157.52 23.9908 157.404 24.0952C157.287 24.1996 157.226 24.347 157.226 24.5252C157.226 24.605 157.244 24.6787 157.281 24.7525C157.318 24.8262 157.361 24.8999 157.41 24.9675C157.459 25.035 157.514 25.1026 157.582 25.1579C157.643 25.2193 157.705 25.2685 157.754 25.3176C157.827 25.2746 157.901 25.2255 157.987 25.1702C158.073 25.1149 158.147 25.0535 158.221 24.9859C158.294 24.9183 158.35 24.8446 158.399 24.7647C158.448 24.6849 158.472 24.5989 158.472 24.5129C158.472 24.3286 158.411 24.1873 158.288 24.089C158.165 23.9908 158.018 23.9416 157.846 23.9416L157.84 23.9355Z" fill="#121317"/>
<path d="M170.612 28.8754C170.201 29.0904 169.777 29.244 169.328 29.3361C168.886 29.4283 168.432 29.4774 167.965 29.4774C167.474 29.4774 167.019 29.3975 166.601 29.244C166.184 29.0904 165.828 28.8693 165.527 28.5805C165.226 28.2918 164.986 27.9417 164.82 27.5363C164.648 27.1247 164.568 26.6701 164.568 26.1664C164.568 25.6627 164.654 25.2082 164.82 24.7966C164.986 24.385 165.226 24.041 165.527 23.7523C165.828 23.4636 166.19 23.2425 166.601 23.0889C167.019 22.9353 167.474 22.8555 167.965 22.8555C168.456 22.8555 168.935 22.9169 169.359 23.0398C169.783 23.1626 170.158 23.3715 170.477 23.6663L169.5 24.7352C169.31 24.5386 169.095 24.3912 168.862 24.2929C168.622 24.1946 168.327 24.1393 167.971 24.1393C167.676 24.1393 167.406 24.1885 167.166 24.2929C166.927 24.3973 166.718 24.5324 166.546 24.7167C166.374 24.901 166.239 25.116 166.153 25.3617C166.061 25.6136 166.012 25.8839 166.012 26.1726C166.012 26.4613 166.061 26.7439 166.153 26.9896C166.245 27.2353 166.374 27.4503 166.546 27.6284C166.718 27.8066 166.927 27.9478 167.166 28.0523C167.406 28.1567 167.676 28.2058 167.971 28.2058C168.266 28.2058 168.536 28.169 168.751 28.1014C168.972 28.0338 169.144 27.9601 169.273 27.8926V26.8667H168.143V25.5829H170.606V28.8754H170.612Z" fill="#121317"/>
<path d="M171.666 25.0051H172.999V25.6992H173.017C173.159 25.4351 173.331 25.2324 173.527 25.0972C173.724 24.9621 173.969 24.8945 174.264 24.8945C174.344 24.8945 174.418 24.8945 174.498 24.9007C174.577 24.9068 174.645 24.9191 174.712 24.9375V26.1538C174.614 26.1231 174.522 26.1047 174.43 26.0862C174.338 26.0739 174.24 26.0617 174.141 26.0617C173.883 26.0617 173.687 26.0985 173.533 26.1661C173.386 26.2398 173.269 26.3381 173.189 26.4671C173.109 26.5961 173.054 26.7497 173.036 26.9278C173.011 27.1059 172.999 27.3025 172.999 27.5175V29.3235H171.666V24.999V25.0051Z" fill="#121317"/>
<path d="M177.998 28.7829H177.979C177.832 29.0163 177.635 29.1822 177.39 29.2805C177.144 29.3788 176.886 29.4341 176.61 29.4341C176.407 29.4341 176.211 29.4033 176.026 29.3481C175.842 29.2928 175.676 29.2068 175.535 29.0962C175.394 28.9856 175.277 28.8443 175.197 28.6785C175.111 28.5126 175.074 28.3222 175.074 28.1011C175.074 27.8492 175.117 27.6404 175.209 27.4684C175.301 27.2964 175.424 27.1551 175.584 27.0384C175.744 26.9278 175.922 26.8357 176.125 26.7742C176.327 26.7128 176.536 26.6637 176.751 26.6391C176.966 26.6084 177.181 26.5899 177.402 26.5838C177.623 26.5777 177.82 26.5777 178.004 26.5777C178.004 26.3381 177.918 26.1538 177.752 26.0125C177.586 25.8712 177.384 25.8037 177.15 25.8037C176.929 25.8037 176.733 25.8528 176.548 25.9388C176.364 26.031 176.204 26.1599 176.063 26.3197L175.351 25.5887C175.602 25.3552 175.891 25.1832 176.223 25.0665C176.554 24.9498 176.898 24.8945 177.255 24.8945C177.648 24.8945 177.967 24.9437 178.219 25.042C178.471 25.1402 178.674 25.2815 178.827 25.472C178.981 25.6624 179.085 25.8958 179.14 26.1722C179.202 26.4487 179.226 26.7681 179.226 27.1305V29.3296H177.998V28.7891V28.7829ZM177.672 27.4315C177.574 27.4315 177.445 27.4315 177.292 27.4438C177.138 27.4499 176.997 27.4806 176.855 27.5175C176.714 27.5544 176.597 27.6219 176.499 27.7018C176.401 27.7878 176.352 27.8984 176.352 28.0519C176.352 28.2116 176.419 28.3284 176.554 28.4082C176.69 28.4881 176.831 28.5249 176.984 28.5249C177.113 28.5249 177.242 28.5065 177.365 28.4696C177.488 28.4328 177.592 28.3836 177.691 28.3161C177.783 28.2485 177.863 28.1686 177.918 28.0642C177.973 27.9598 178.004 27.8431 178.004 27.7079V27.4254H177.672V27.4315Z" fill="#121317"/>
<path d="M180.188 25.0006H181.416V25.5719H181.434C181.49 25.492 181.557 25.4183 181.643 25.3385C181.729 25.2586 181.827 25.1849 181.944 25.1235C182.061 25.0559 182.184 25.0068 182.325 24.9638C182.46 24.9208 182.607 24.9023 182.761 24.9023C183.08 24.9023 183.375 24.9576 183.633 25.0682C183.891 25.1788 184.118 25.3323 184.303 25.5289C184.487 25.7255 184.634 25.965 184.733 26.2353C184.831 26.5056 184.886 26.8066 184.886 27.1322C184.886 27.4332 184.843 27.7219 184.751 27.9983C184.659 28.2747 184.53 28.5204 184.358 28.7354C184.186 28.9504 183.983 29.1224 183.738 29.2453C183.492 29.3682 183.216 29.4357 182.908 29.4357C182.632 29.4357 182.368 29.3927 182.128 29.3067C181.889 29.2207 181.692 29.0733 181.539 28.8644H181.52V31.3584H180.188V25.0006ZM181.416 27.1629C181.416 27.4885 181.508 27.7526 181.698 27.9553C181.883 28.158 182.147 28.2563 182.485 28.2563C182.822 28.2563 183.087 28.158 183.271 27.9553C183.455 27.7526 183.553 27.4885 183.553 27.1629C183.553 26.8373 183.461 26.5732 183.271 26.3705C183.087 26.1678 182.822 26.0695 182.485 26.0695C182.147 26.0695 181.883 26.1678 181.698 26.3705C181.514 26.5732 181.416 26.8373 181.416 27.1629Z" fill="#121317"/>
<path d="M187.01 22.5977V25.5892H187.029C187.059 25.5032 187.109 25.4233 187.182 25.3373C187.256 25.2513 187.342 25.1776 187.44 25.1162C187.538 25.0486 187.661 24.9995 187.796 24.9565C187.932 24.9135 188.079 24.8951 188.239 24.8951C188.577 24.8951 188.853 24.9442 189.056 25.0486C189.264 25.1531 189.424 25.2943 189.541 25.4786C189.658 25.6629 189.737 25.8779 189.774 26.1298C189.817 26.3816 189.836 26.6519 189.836 26.9406V29.324H188.503V27.2047C188.503 27.0819 188.503 26.9529 188.491 26.8178C188.484 26.6826 188.454 26.5598 188.411 26.4492C188.368 26.3386 188.3 26.2465 188.208 26.1728C188.116 26.099 187.987 26.0683 187.815 26.0683C187.643 26.0683 187.502 26.099 187.397 26.1605C187.293 26.2219 187.207 26.3079 187.152 26.4123C187.096 26.5168 187.059 26.6335 187.041 26.7625C187.023 26.8915 187.016 27.0266 187.016 27.174V29.3302H185.684V22.6038H187.016L187.01 22.5977Z" fill="#121317"/>
<path d="M190.691 23.6392C190.691 23.4242 190.765 23.2399 190.919 23.0925C191.072 22.9451 191.25 22.8652 191.465 22.8652C191.68 22.8652 191.858 22.9389 192.012 23.0925C192.166 23.2461 192.239 23.4242 192.239 23.6392C192.239 23.8542 192.166 24.0324 192.012 24.1859C191.858 24.3395 191.68 24.4132 191.465 24.4132C191.25 24.4132 191.066 24.3395 190.919 24.1859C190.771 24.0324 190.691 23.8542 190.691 23.6392ZM190.796 25.0029H192.129V29.3274H190.796V25.0029Z" fill="#121317"/>
<path d="M196.03 26.3998C195.962 26.3015 195.87 26.2278 195.753 26.1664C195.637 26.1049 195.508 26.0742 195.373 26.0742C195.035 26.0742 194.771 26.1725 194.586 26.3752C194.402 26.5779 194.304 26.8421 194.304 27.1676C194.304 27.4932 194.396 27.7574 194.586 27.9601C194.771 28.1628 195.035 28.2611 195.373 28.2611C195.52 28.2611 195.649 28.2303 195.753 28.1628C195.858 28.0952 195.95 28.0215 196.03 27.9294L196.908 28.8569C196.699 29.0719 196.454 29.2193 196.171 29.3053C195.888 29.3913 195.618 29.4343 195.366 29.4343C195.035 29.4343 194.721 29.3791 194.427 29.2746C194.132 29.1702 193.88 29.0166 193.659 28.8139C193.444 28.6173 193.272 28.3778 193.149 28.0952C193.026 27.8188 192.965 27.5055 192.965 27.1615C192.965 26.8175 193.026 26.5042 193.149 26.2278C193.272 25.9514 193.444 25.7118 193.659 25.5091C193.874 25.3125 194.132 25.159 194.427 25.0484C194.721 24.944 195.035 24.8887 195.366 24.8887C195.618 24.8887 195.888 24.9317 196.171 25.0177C196.454 25.1037 196.699 25.2511 196.908 25.4661L196.03 26.3937V26.3998Z" fill="#121317"/>
<path d="M199.828 26.2767C199.631 26.0309 199.373 25.9142 199.054 25.9142C198.943 25.9142 198.833 25.9388 198.722 25.9941C198.618 26.0494 198.562 26.1415 198.562 26.2705C198.562 26.3749 198.618 26.4548 198.728 26.5039C198.839 26.5531 198.98 26.5961 199.146 26.6391C199.318 26.6759 199.496 26.7189 199.686 26.7619C199.877 26.8049 200.061 26.8787 200.227 26.9708C200.399 27.0691 200.534 27.1919 200.644 27.3578C200.755 27.5236 200.81 27.7386 200.81 28.0151C200.81 28.2915 200.749 28.5249 200.626 28.7031C200.503 28.8812 200.35 29.0286 200.159 29.1392C199.969 29.2498 199.754 29.3235 199.52 29.3726C199.281 29.4156 199.047 29.4402 198.82 29.4402C198.519 29.4402 198.212 29.3972 197.905 29.3112C197.598 29.2252 197.334 29.0716 197.125 28.8505L197.936 27.9536C198.059 28.1072 198.2 28.2239 198.347 28.3038C198.501 28.3836 198.673 28.4266 198.876 28.4266C199.029 28.4266 199.17 28.4021 199.293 28.3591C199.416 28.3161 199.477 28.2362 199.477 28.1134C199.477 28.0028 199.422 27.9168 199.312 27.8615C199.201 27.8062 199.06 27.7571 198.894 27.7202C198.722 27.6834 198.544 27.6404 198.353 27.5974C198.163 27.5544 197.979 27.4868 197.813 27.3946C197.647 27.3025 197.506 27.1797 197.395 27.0138C197.285 26.8479 197.229 26.6329 197.229 26.3565C197.229 26.0985 197.279 25.8835 197.383 25.6992C197.487 25.515 197.623 25.3614 197.794 25.2447C197.966 25.128 198.157 25.0358 198.378 24.9805C198.599 24.9252 198.82 24.8945 199.047 24.8945C199.33 24.8945 199.619 24.9375 199.914 25.0174C200.208 25.0972 200.448 25.2508 200.651 25.4597L199.834 26.2705L199.828 26.2767Z" fill="#121317"/>
<path d="M204.354 23.0273H208.635V24.3112H205.742V25.4845H208.475V26.7683H205.742V28.0521H208.794V29.336H204.354V23.0335V23.0273Z" fill="#121317"/>
<path d="M214.286 29.3279H213.058V28.7566H213.039C212.984 28.8365 212.917 28.9102 212.831 28.9901C212.745 29.0699 212.646 29.1436 212.53 29.2112C212.413 29.2788 212.284 29.3279 212.149 29.3709C212.014 29.4139 211.866 29.4323 211.719 29.4323C211.4 29.4323 211.105 29.3771 210.847 29.2665C210.589 29.1559 210.362 29.0023 210.177 28.8058C209.993 28.6092 209.846 28.3696 209.747 28.0994C209.649 27.8291 209.594 27.5281 209.594 27.2025C209.594 26.9015 209.643 26.6128 209.735 26.3364C209.827 26.06 209.956 25.8142 210.128 25.5992C210.3 25.3842 210.503 25.2122 210.748 25.0894C210.994 24.9604 211.271 24.899 211.578 24.899C211.854 24.899 212.118 24.942 212.358 25.028C212.597 25.114 212.794 25.2614 212.947 25.4702H212.966V22.6016H214.299V29.3279H214.286ZM213.058 27.1657C213.058 26.8401 212.966 26.5759 212.775 26.3732C212.591 26.1705 212.327 26.0722 211.989 26.0722C211.651 26.0722 211.387 26.1705 211.203 26.3732C211.019 26.5759 210.92 26.8401 210.92 27.1657C210.92 27.4912 211.013 27.7554 211.203 27.9581C211.387 28.1608 211.651 28.2591 211.989 28.2591C212.327 28.2591 212.591 28.1608 212.775 27.9581C212.96 27.7554 213.058 27.4912 213.058 27.1657Z" fill="#121317"/>
<path d="M219.518 29.3268H218.234V28.7371H218.216C218.167 28.8231 218.105 28.9029 218.031 28.9889C217.958 29.0749 217.866 29.1486 217.761 29.21C217.657 29.2776 217.534 29.3268 217.399 29.3698C217.264 29.4128 217.116 29.4312 216.957 29.4312C216.619 29.4312 216.342 29.382 216.134 29.2776C215.925 29.1732 215.759 29.0319 215.642 28.8476C215.525 28.6633 215.452 28.4483 215.409 28.1965C215.372 27.9446 215.354 27.6744 215.354 27.3856V25.0022H216.686V27.1215C216.686 27.2444 216.686 27.3734 216.699 27.5085C216.711 27.6436 216.735 27.7665 216.778 27.8771C216.821 27.9876 216.889 28.0798 216.981 28.1535C217.073 28.2272 217.202 28.2579 217.374 28.2579C217.546 28.2579 217.688 28.2272 217.792 28.1658C217.896 28.1043 217.982 28.0183 218.038 27.9139C218.093 27.8095 218.13 27.6928 218.148 27.5638C218.167 27.4348 218.173 27.2996 218.173 27.1522V24.9961H219.506V29.3206L219.518 29.3268Z" fill="#121317"/>
<path d="M223.381 26.3998C223.314 26.3015 223.222 26.2278 223.105 26.1664C222.988 26.1049 222.859 26.0742 222.724 26.0742C222.386 26.0742 222.122 26.1725 221.938 26.3752C221.754 26.5779 221.655 26.8421 221.655 27.1676C221.655 27.4932 221.748 27.7574 221.938 27.9601C222.122 28.1628 222.386 28.2611 222.724 28.2611C222.872 28.2611 223.001 28.2303 223.105 28.1628C223.209 28.0952 223.301 28.0215 223.381 27.9294L224.26 28.8569C224.051 29.0719 223.805 29.2193 223.523 29.3053C223.24 29.3913 222.97 29.4343 222.718 29.4343C222.386 29.4343 222.073 29.3791 221.778 29.2746C221.483 29.1702 221.232 29.0166 221.01 28.8139C220.795 28.6173 220.624 28.3778 220.501 28.0952C220.378 27.8188 220.316 27.5055 220.316 27.1615C220.316 26.8175 220.378 26.5042 220.501 26.2278C220.624 25.9514 220.795 25.7118 221.01 25.5091C221.225 25.3125 221.483 25.159 221.778 25.0484C222.073 24.944 222.386 24.8887 222.718 24.8887C222.97 24.8887 223.24 24.9317 223.523 25.0177C223.805 25.1037 224.051 25.2511 224.26 25.4661L223.381 26.3937V26.3998Z" fill="#121317"/>
<path d="M227.469 28.7829H227.45C227.303 29.0163 227.106 29.1822 226.86 29.2805C226.615 29.3788 226.357 29.4341 226.08 29.4341C225.878 29.4341 225.681 29.4033 225.497 29.3481C225.313 29.2928 225.147 29.2068 225.006 29.0962C224.864 28.9856 224.748 28.8443 224.668 28.6785C224.582 28.5126 224.545 28.3222 224.545 28.1011C224.545 27.8492 224.588 27.6404 224.68 27.4684C224.772 27.2964 224.895 27.1551 225.055 27.0384C225.214 26.9278 225.393 26.8357 225.595 26.7742C225.798 26.7128 226.007 26.6637 226.222 26.6391C226.437 26.6084 226.652 26.5899 226.873 26.5838C227.094 26.5777 227.29 26.5777 227.475 26.5777C227.475 26.3381 227.389 26.1538 227.223 26.0125C227.057 25.8712 226.854 25.8037 226.621 25.8037C226.4 25.8037 226.203 25.8528 226.019 25.9388C225.835 26.031 225.675 26.1599 225.534 26.3197L224.821 25.5887C225.073 25.3552 225.362 25.1832 225.693 25.0665C226.025 24.9498 226.369 24.8945 226.725 24.8945C227.118 24.8945 227.438 24.9437 227.69 25.042C227.942 25.1402 228.144 25.2815 228.298 25.472C228.451 25.6624 228.556 25.8958 228.611 26.1722C228.672 26.4487 228.697 26.7681 228.697 27.1305V29.3296H227.469V28.7891V28.7829ZM227.137 27.4315C227.039 27.4315 226.91 27.4315 226.756 27.4438C226.603 27.4499 226.461 27.4806 226.32 27.5175C226.179 27.5544 226.062 27.6219 225.964 27.7018C225.865 27.7878 225.816 27.8984 225.816 28.0519C225.816 28.2116 225.884 28.3284 226.019 28.4082C226.154 28.4881 226.295 28.5249 226.449 28.5249C226.578 28.5249 226.707 28.5065 226.83 28.4696C226.953 28.4328 227.057 28.3836 227.155 28.3161C227.247 28.2485 227.327 28.1686 227.383 28.0642C227.438 27.9598 227.469 27.8431 227.469 27.7079V27.4254H227.137V27.4315Z" fill="#121317"/>
<path d="M232.479 26.0664H231.305V27.51C231.305 27.6267 231.305 27.7373 231.324 27.8356C231.342 27.9338 231.361 28.0198 231.404 28.0874C231.447 28.155 231.508 28.2164 231.594 28.2533C231.68 28.2901 231.797 28.3085 231.938 28.3085C232.012 28.3085 232.104 28.3024 232.221 28.284C232.337 28.2717 232.423 28.2348 232.485 28.1795V29.2914C232.337 29.3467 232.184 29.3774 232.024 29.3958C231.864 29.4142 231.705 29.4204 231.551 29.4204C231.324 29.4204 231.121 29.3958 230.931 29.3467C230.74 29.2975 230.575 29.2238 230.433 29.1194C230.292 29.015 230.181 28.8798 230.102 28.714C230.022 28.5481 229.979 28.3454 229.979 28.1058V26.048H229.125V24.9792H229.979V23.6953H231.312V24.9792H232.485V26.048L232.479 26.0664Z" fill="#121317"/>
<path d="M233.061 23.6392C233.061 23.4242 233.134 23.2399 233.288 23.0925C233.441 22.9451 233.619 22.8652 233.834 22.8652C234.049 22.8652 234.228 22.9389 234.381 23.0925C234.535 23.2461 234.608 23.4242 234.608 23.6392C234.608 23.8542 234.535 24.0324 234.381 24.1859C234.228 24.3395 234.049 24.4132 233.834 24.4132C233.619 24.4132 233.435 24.3395 233.288 24.1859C233.14 24.0324 233.061 23.8542 233.061 23.6392ZM233.171 25.0029H234.504V29.3274H233.171V25.0029Z" fill="#121317"/>
<path d="M235.307 27.1674C235.307 26.8234 235.368 26.5101 235.491 26.2337C235.614 25.9572 235.786 25.7177 236.001 25.515C236.216 25.3122 236.474 25.1648 236.768 25.0542C237.063 24.9498 237.377 24.8945 237.708 24.8945C238.04 24.8945 238.353 24.9498 238.648 25.0542C238.943 25.1587 239.195 25.3122 239.416 25.515C239.637 25.7177 239.803 25.9511 239.925 26.2337C240.048 26.5101 240.11 26.8234 240.11 27.1674C240.11 27.5114 240.048 27.8246 239.925 28.1011C239.803 28.3775 239.631 28.6171 239.416 28.8198C239.201 29.0225 238.943 29.1699 238.648 29.2805C238.353 29.3849 238.04 29.4402 237.708 29.4402C237.377 29.4402 237.063 29.3849 236.768 29.2805C236.474 29.1761 236.222 29.0225 236.001 28.8198C235.78 28.6171 235.614 28.3836 235.491 28.1011C235.368 27.8246 235.307 27.5114 235.307 27.1674ZM236.639 27.1674C236.639 27.4929 236.732 27.7571 236.922 27.9598C237.106 28.1625 237.37 28.2608 237.708 28.2608C238.046 28.2608 238.31 28.1625 238.494 27.9598C238.679 27.7571 238.777 27.4929 238.777 27.1674C238.777 26.8418 238.685 26.5777 238.494 26.3749C238.31 26.1722 238.046 26.074 237.708 26.074C237.37 26.074 237.106 26.1722 236.922 26.3749C236.738 26.5777 236.639 26.8418 236.639 27.1674Z" fill="#121317"/>
<path d="M240.9 25.0029H242.184V25.5926H242.203C242.246 25.5066 242.301 25.4267 242.381 25.3407C242.46 25.2547 242.553 25.181 242.657 25.1196C242.761 25.052 242.884 25.0029 243.019 24.9599C243.155 24.9169 243.302 24.8984 243.462 24.8984C243.799 24.8984 244.076 24.9476 244.279 25.052C244.487 25.1564 244.647 25.2977 244.764 25.482C244.88 25.6663 244.96 25.8813 244.997 26.1331C245.04 26.385 245.059 26.6553 245.059 26.944V29.3274H243.726V27.2081C243.726 27.0853 243.726 26.9563 243.713 26.8211C243.707 26.686 243.677 26.5631 243.634 26.4526C243.591 26.342 243.523 26.2499 243.431 26.1761C243.339 26.1024 243.21 26.0717 243.038 26.0717C242.866 26.0717 242.725 26.1024 242.62 26.1639C242.516 26.2253 242.43 26.3113 242.374 26.4157C242.319 26.5201 242.282 26.6368 242.264 26.7658C242.246 26.8948 242.239 27.03 242.239 27.1774V29.3335H240.907V25.009L240.9 25.0029Z" fill="#121317"/>
</svg>
